<!-- Generated by IcoMoon.io -->
<svg version="1.1" xmlns="http://www.w3.org/2000/svg" width="2048" height="1024" viewBox="0 0 2048 1024">
<title></title>
<g id="icomoon-ignore">
</g>
<path fill="#d54283" d="M1067.042 410.18c0.478 1.263 1.058 2.628 2.253 3.243 1.365 0.717 3.038 0.205 4.471-0.307 52.497-18.671 104.96-37.308 157.457-55.979 1.502-0.546 3.106-1.161 3.891-2.526 0.956-1.604 0.444-3.618-0.068-5.393-2.423-8.294-4.813-16.589-7.236-24.849-0.99-3.413-3.618-9.387-6.861-10.786-2.526-1.092-3.823 0.41-6.485 1.161-32.051 9.182-62.225 20.241-94.276 29.423-7.782-15.531-15.121-35.26-21.606-52.668 18.739-6.997 37.478-13.995 56.218-20.992 1.57-0.58 3.243-1.229 4.233-2.594 1.536-2.116 0.853-5.052 0.102-7.509-2.662-8.499-5.973-16.828-9.83-24.849-1.536-3.209-3.379-6.554-6.554-8.124-4.164-2.048-9.114-0.375-13.449 1.297-17.715 6.861-35.43 13.722-53.146 20.617-7.441-17.749-14.916-35.533-22.357-53.282 35.021-12.39 69.905-26.726 104.346-40.619 3.072-1.229 7.851-3.243 8.943-6.349 0.956-2.697-1.707-4.062-2.833-6.69-4.813-11.332-9.66-22.665-14.473-33.997-0.717-1.673-1.536-3.482-3.106-4.403-1.604-0.922-3.584-0.717-5.359-0.341-4.096 0.819-8.055 2.287-11.981 3.755-47.548 17.681-95.061 35.362-142.609 53.043 5.359 16.384 12.117 31.812 17.476 48.23 3.345 10.24 21.948 65.092 25.907 81.442 5.905 24.678 34.816 114.654 36.932 120.047z"></path>
<path fill="#000" d="M1226.615 347.887c-2.799-9.762-5.973-19.558-9.353-29.082l-0.41-1.161-73.318 27.75c-5.427 2.048-11.025 4.164-16.486 6.622-3.584 1.604-7.1 3.345-10.581 5.12l-27.375-68.301 62.225-23.279c0.58-0.205 1.604-0.58 2.15-1.502 0.853-1.399 0.102-3.038-0.239-3.755l-13.756-29.594c-0.239-0.512-0.683-1.502-1.741-1.843-0.887-0.273-1.741 0.068-2.185 0.273l-65.092 27.682c-4.301-21.982-10.445-43.725-18.193-64.751 36.011-13.619 72.055-27.716 107.554-42.086l1.058-0.444-0.375-1.092c-4.745-14.029-11.23-27.443-19.251-39.834l-0.546-0.819-0.922 0.375c-47.445 18.944-95.915 37.444-143.974 54.921l0.239 0.683-0.205 0.068c14.37 47.718 29.116 96.017 43.827 143.497 2.765 8.909 5.53 17.852 8.294 26.761l22.562 72.567 2.321-0.717-0.273-0.853c24.986-10.547 51.405-18.637 76.937-26.453 24.747-7.578 50.347-15.394 74.684-25.463 0.683-0.273 1.673-0.683 2.253-1.638 0.853-1.297 0.41-2.833 0.171-3.652zM1136.435 231.356c0.102-0.034 0.41-0.171 0.444-0.205 0.068 0.068 0.171 0.239 0.341 0.546l13.756 29.594c0.341 0.785 0.478 1.263 0.341 1.468-0.102 0.205-0.649 0.375-0.922 0.478l-4.745 1.775c-1.297-3.447-2.492-7.031-3.618-10.513-2.389-7.339-4.915-14.916-8.806-21.811l3.209-1.331zM1131.008 233.677c3.857 6.724 6.349 14.268 8.738 21.606 1.161 3.482 2.321 7.1 3.652 10.615l-95.881 35.874c-3.174-9.421-6.212-19.046-9.114-28.672l92.604-39.424zM1139.712 110.831c7.475 11.674 13.551 24.269 18.091 37.376-3.277 1.331-6.622 2.628-9.899 3.959l-12.459-39.663c1.434-0.58 2.867-1.126 4.267-1.673zM1133.193 113.391l12.459 39.663c-42.633 17.101-85.879 33.792-128.922 49.698-5.188-13.005-9.762-26.385-13.619-39.799 43.452-15.838 87.142-32.495 130.082-49.562zM998.605 164.659c0.751-0.273 1.502-0.546 2.219-0.819 3.857 13.414 8.431 26.795 13.619 39.799-0.922 0.341-1.843 0.683-2.731 1.024l0.853 2.287c12.459-4.574 24.917-9.25 37.41-13.961 7.748 21.026 13.892 42.837 18.193 64.819l-36.454 15.497c-11.127-36.147-22.221-72.533-33.109-108.646zM1032.226 274.978l0.273 0.649 3.652-1.57c2.901 9.591 5.939 19.183 9.114 28.57l-4.028 1.502c-3.004-9.694-6.007-19.422-9.011-29.15zM1050.317 333.38c-2.765-8.909-5.53-17.852-8.294-26.761-0.034-0.068-0.034-0.137-0.068-0.205l44.851-16.759 27.477 68.574c-0.614 0.307-1.229 0.614-1.809 0.922-5.222 2.662-10.581 5.427-16.043 7.782-3.823 1.638-7.817 3.174-11.639 4.608-6.656 2.526-13.517 5.154-19.9 8.636l-14.575-46.797zM1071.889 402.807l-6.349-20.446 0.068 0.137c1.126-0.614 2.253-1.161 3.413-1.741 3.106 6.451 5.7 13.175 7.714 20.070-1.638 0.649-3.243 1.331-4.847 1.98zM1148.826 376.354c-23.142 7.066-46.967 14.37-69.871 23.552-2.048-6.929-4.642-13.687-7.782-20.207 4.745-2.185 9.66-4.062 14.438-5.905 3.857-1.468 7.885-3.004 11.742-4.676 5.53-2.389 10.923-5.154 16.179-7.851 4.71-2.423 9.557-4.915 14.438-7.1 5.393-2.423 10.991-4.54 16.384-6.554l65.331-24.713c3.584 9.762 6.861 19.661 9.796 29.559-23.074 9.318-47.241 16.725-70.656 23.893zM1224.431 350.276c-0.171 0.273-0.717 0.512-1.126 0.683-0.512 0.205-1.058 0.41-1.57 0.614-2.935-9.865-6.212-19.797-9.796-29.525l3.413-1.297c3.209 9.114 6.212 18.466 8.909 27.785 0.239 0.717 0.375 1.399 0.171 1.741z"></path>
<path fill="#000" d="M514.219 920.713c-5.325 0-14.438-26.59-14.473-26.863-0.205-1.741-0.444-3.516-0.683-5.359-1.024-7.714-2.185-16.452-1.195-23.962 0.341-2.628 0.683-11.913 0.683-12.015 0.034-0.649 0.307-1.297 0.785-1.707 0.478-0.444 1.126-0.649 1.809-0.614 0.137 0 14.746 1.092 17.067 1.161 1.399 0.034 3.379 0.068 5.734 0.102 0.956-0.239 2.082-0.171 3.482-0.034 0.785 0.068 1.161 0.068 1.604 0.068 2.901 0 5.803 0 8.738-0.034l5.495-0.034c9.796-0.034 19.934-0.102 29.833-0.717 42.906-2.731 79.94-2.697 115.712-2.697 40.585 0.034 78.882 0.068 125.372-3.55 0.751-0.068 1.468 0.239 1.946 0.751 0.512 0.546 0.717 1.263 0.614 2.014-3.277 22.46-0.341 41.813 2.97 57.788 0.137 0.683 0 1.399-0.444 1.946-0.41 0.546-1.058 0.922-1.741 0.956-14.234 1.126-29.013 1.092-43.281 1.024-21.606-0.068-43.964-0.171-65.707 3.789-10.923 1.98-27.034 4.403-39.219 5.905-27.273 3.345-50.108 1.946-76.561 0.273l-5.018-0.307c-23.996-1.468-40.346-0.273-62.976 1.399l-10.479 0.751c0-0.034-0.034-0.034-0.068-0.034zM503.296 855.211c-0.137 3.038-0.375 7.987-0.614 9.967-0.922 6.861 0.205 15.258 1.195 22.665 0.239 1.877 0.478 3.686 0.717 5.427 0.478 2.526 7.782 19.285 10.308 22.528l9.591-0.683c21.948-1.604 39.287-2.901 63.625-1.399l5.018 0.307c26.214 1.638 48.845 3.038 75.674-0.273 12.083-1.502 28.092-3.891 38.946-5.871 22.187-4.028 44.783-3.959 66.594-3.857 13.278 0.068 26.931 0.102 40.141-0.819-3.004-15.121-5.461-33.075-2.867-53.76-45.431 3.413-84.719 3.379-122.743 3.345-35.738-0.034-72.67-0.068-115.405 2.662-10.035 0.649-20.241 0.683-30.106 0.751l-5.495 0.034c-3.209 0.034-6.383 0.034-9.591 0.034-0.307 0-0.751-0.034-1.263-0.102-0.375-0.034-1.024-0.102-1.468-0.102-0.239 0.58-0.614 2.116-0.785 2.833-0.137 0.546-0.273 1.024-0.375 1.399-2.628 8.226-4.13 16.828-4.403 25.566-0.273 8.226 0.512 16.384 2.321 24.269 0.307 1.297-0.512 2.594-1.809 2.901s-2.594-0.512-2.901-1.809c-1.911-8.294-2.731-16.896-2.423-25.532 0.307-9.182 1.877-18.227 4.642-26.863 0.102-0.273 0.171-0.683 0.307-1.092 0.137-0.512 0.273-1.024 0.41-1.502-0.887 0-1.673-0.034-2.355-0.068-1.946 0-10.547-0.614-14.882-0.956zM525.175 856.166v0 0z"></path>
<path fill="#000" d="M805.513 907.059c-0.887 0-1.741-0.512-2.185-1.365-3.755-7.714-7.851-16.896-9.591-26.59-1.331-7.407-1.843-18.364 3.277-28.57 0.614-1.195 2.048-1.673 3.243-1.058s1.673 2.048 1.058 3.243c-4.54 9.011-4.062 18.842-2.833 25.532 1.638 9.079 5.393 17.545 9.182 25.327 0.58 1.195 0.102 2.662-1.126 3.243-0.307 0.137-0.683 0.239-1.024 0.239z"></path>
<path fill="#000" d="M568.457 899.755c-0.887 0-1.638-0.341-2.185-0.819-1.024-0.887-1.365-2.185-1.092-3.891 0.102-0.649 0.239-1.263 0.375-1.911 0.341-1.638 0.683-3.243 0.58-4.608-5.257 0.273-10.411 2.15-14.643 5.291-1.058 0.785-2.594 0.58-3.379-0.512-0.785-1.058-0.58-2.594 0.512-3.379 5.564-4.13 12.425-6.315 19.422-6.281 0.956 0 1.809 0.58 2.185 1.434 1.126 2.526 0.853 5.086 0.41 7.475 5.734-4.983 13.107-8.090 20.685-8.602 0.751-0.034 1.502 0.273 2.014 0.853s0.683 1.399 0.512 2.15c-0.341 1.331-0.785 2.662-1.331 3.925 2.799-0.819 5.598-1.741 8.329-2.731 0.614-0.239 1.263-0.205 1.843 0.068s1.024 0.751 1.263 1.365c0.41 1.092 0.751 2.219 0.99 3.379 4.847-3.072 10.889-6.246 17.408-5.837 1.297 0.068 2.321 1.161 2.287 2.492l-0.102 3.686c0.137-0.034 0.307-0.068 0.478-0.137 4.096-1.263 8.294-2.185 12.527-2.731 1.331-0.171 2.526 0.751 2.697 2.082s-0.751 2.526-2.082 2.697c-3.959 0.512-7.919 1.365-11.742 2.56-4.506 1.399-6.042-1.092-6.383-1.877-0.41-0.887-0.375-1.741-0.341-2.253l0.034-1.673c-5.052 0.512-9.933 3.482-15.189 6.997-0.717 0.478-1.604 0.546-2.355 0.171-0.751-0.341-1.297-1.092-1.399-1.946-0.137-1.263-0.375-2.492-0.683-3.721-3.994 1.399-8.090 2.56-12.186 3.55-1.024 0.239-2.048-0.205-2.594-1.058s-0.478-2.014 0.171-2.799c0.956-1.195 1.809-2.526 2.458-3.925-6.042 1.195-11.708 4.267-15.94 8.67-1.297 1.365-2.526 1.843-3.55 1.843z"></path>
<path fill="#000" d="M665.702 897.673c-0.171 0-0.307 0-0.478-0.034-2.628-0.341-3.311-2.731-3.686-4.028-0.102-0.41-0.239-0.819-0.341-1.024-0.239-0.444-1.536-0.751-3.823-0.273-2.935 0.58-5.871 1.331-8.806 2.185-1.263 0.341-2.628-0.375-3.004-1.638-0.375-1.297 0.375-2.628 1.638-3.004 3.072-0.887 6.144-1.673 9.216-2.287 5.939-1.229 8.192 1.195 9.045 2.731 0.341 0.649 0.546 1.331 0.717 1.946 0 0.068 0.034 0.102 0.068 0.171 6.007-3.618 13.073-5.564 20.139-5.427 0.785 0 1.536 0.41 1.98 1.092 0.444 0.649 0.512 1.502 0.239 2.253-0.205 0.546-0.444 1.092-0.683 1.638 4.437-0.614 8.841-1.638 13.107-2.97 1.263-0.41 2.628 0.307 3.038 1.57s-0.307 2.628-1.57 3.038c-6.042 1.911-12.322 3.14-18.637 3.686-0.922 0.102-1.775-0.375-2.253-1.126-0.478-0.785-0.478-1.741 0-2.526 0.307-0.512 0.614-1.058 0.922-1.604-4.915 0.512-9.762 2.116-13.926 4.71-0.717 0.307-1.673 0.922-2.901 0.922z"></path>
<path fill="#000" d="M764.143 894.396c-1.058 0-2.389-0.239-3.447-1.229-0.99-0.922-1.263-2.048-1.502-2.867-0.068-0.239-0.171-0.614-0.239-0.717-0.102-0.068-0.58-0.205-1.126 0-0.751 0.273-1.502 0.887-2.321 1.57l-0.683 0.546c-1.263 0.99-3.243 2.287-5.598 2.219-0.751-0.034-1.434-0.41-1.877-0.99-0.444-0.614-0.58-1.399-0.341-2.082 0.341-1.161 0.478-2.423 0.375-3.652-3.994 0-7.953 0.649-11.742 1.877-1.263 0.41-2.628-0.273-3.038-1.57-0.41-1.263 0.307-2.628 1.57-3.038 4.983-1.604 10.172-2.321 15.36-2.082 1.058 0.034 1.946 0.751 2.219 1.775 0.307 1.126 0.478 2.287 0.512 3.447l0.205-0.171c1.058-0.853 2.219-1.809 3.755-2.355 2.287-0.819 5.393-0.375 6.861 2.014 0.444 0.717 0.649 1.434 0.785 2.014 0.034 0.171 0.102 0.444 0.171 0.58 0.034-0.102 0.307-0.102 0.922-0.171l5.7-0.717c1.331-0.171 2.526 0.785 2.697 2.116s-0.785 2.526-2.116 2.697l-5.734 0.717c-0.341 0-0.819 0.068-1.365 0.068z"></path>
<path fill="#000" d="M1133.602 908.425c-19.831 0-39.526-0.546-58.982-1.092l-183.398-5.052c-2.287-0.068-4.301-2.185-8.533-13.21-1.775-4.642-2.97-9.25-3.55-13.995-1.263-9.899-0.102-19.934 3.413-28.945 2.833-7.236 5.188-7.748 12.186-8.226 5.803-0.41 11.708-0.614 18.125-0.717 12.493-0.137 25.054 0.273 35.874 0.683l7.202 0.273c10.923 0.444 22.187 0.887 33.28 0.99v0c16.623 0.137 33.519-0.58 49.835-1.263l162.748-6.793c0.853-0.034 1.741 0.41 2.185 1.195 0.444 0.751 0.444 1.707 0 2.492-6.724 11.127-7.066 24.132-6.11 33.109 1.195 11.674 4.983 23.108 8.602 34.167 0.239 0.683 0.137 1.468-0.273 2.082s-1.058 1.024-1.775 1.092c-23.45 2.423-47.206 3.209-70.827 3.209zM892.006 897.434l182.784 5.052c41.438 1.126 84.275 2.321 126.225-1.843-3.413-10.411-6.758-21.163-7.885-32.324-0.887-8.704-0.683-20.958 4.71-32.256l-158.481 6.622c-16.384 0.683-33.348 1.399-50.074 1.263-11.162-0.068-22.494-0.546-33.451-0.99l-7.202-0.273c-10.752-0.41-23.245-0.853-35.635-0.683-6.315 0.068-12.117 0.307-17.715 0.683-6.315 0.444-6.315 0.444-8.158 5.154-3.209 8.26-4.301 17.476-3.14 26.556 0.546 4.369 1.638 8.602 3.174 12.595 2.833 7.543 4.301 9.796 4.847 10.445z"></path>
<path fill="#000" d="M901.564 897.911c-0.785 0-1.536-0.375-2.014-1.058-5.769-8.397-8.465-18.637-7.646-28.809s5.188-19.797 12.22-27.17c0.922-0.956 2.458-0.99 3.413-0.068s0.99 2.458 0.068 3.413c-6.281 6.554-10.172 15.155-10.889 24.235-0.751 9.045 1.673 18.193 6.793 25.668 0.751 1.092 0.478 2.594-0.614 3.379-0.41 0.273-0.887 0.41-1.331 0.41z"></path>
<path fill="#000" d="M1193.574 904.26c-0.922 0-1.809-0.546-2.219-1.434-3.925-8.806-7.578-17.476-9.523-26.795-2.219-10.615-1.673-20.617 1.57-28.945 1.741-4.506 4.471-8.943 8.055-13.21 0.853-1.024 2.389-1.161 3.413-0.307s1.161 2.389 0.307 3.413c-3.243 3.857-5.7 7.851-7.236 11.844-2.901 7.407-3.379 16.486-1.365 26.18 1.843 8.841 5.427 17.271 9.216 25.839 0.546 1.229 0 2.662-1.229 3.209-0.341 0.137-0.683 0.205-0.99 0.205z"></path>
<path fill="#000" d="M907.366 859.989c-1.331 0-2.389-1.058-2.423-2.389s1.058-2.423 2.389-2.458l263.441-3.584c0 0 0.034 0 0.034 0 1.331 0 2.389 1.058 2.423 2.389 0 1.331-1.058 2.423-2.389 2.458l-263.475 3.584c0.034 0 0 0 0 0z"></path>
<path fill="#000" d="M1004.442 879.684c-0.819 0-1.638-0.068-2.492-0.239-2.492-0.512-4.813-2.219-6.076-4.403-0.444-0.751-0.717-1.57-0.853-2.355-5.222 0.205-10.411 1.399-15.189 3.516l-0.785 0.341c-1.536 0.683-3.277 1.468-5.222 1.741-3.038 0.41-5.939-0.785-7.373-3.004-0.375-0.58-0.683-1.263-0.956-1.946-0.102-0.273-0.273-0.649-0.41-0.922-0.102 0.068-0.205 0.102-0.239 0.137l-12.39 6.656c-0.649 0.341-1.399 0.375-2.082 0.102s-1.195-0.853-1.399-1.536l-1.604-5.325c-8.055 1.126-15.974 3.277-23.484 6.349-1.229 0.512-2.662-0.068-3.14-1.331-0.512-1.229 0.068-2.662 1.331-3.14 7.953-3.277 16.316-5.53 24.883-6.69 0.683-0.102 2.15-0.273 3.413 0.649 1.092 0.785 1.434 1.911 1.604 2.526l0.819 2.765 9.796-5.257c0.649-0.375 1.775-0.956 3.174-0.853 2.662 0.239 3.652 2.594 4.233 3.994 0.171 0.41 0.341 0.819 0.546 1.161 0.41 0.614 1.536 0.99 2.697 0.853 1.229-0.171 2.492-0.717 3.857-1.331l0.819-0.375c6.178-2.697 12.971-4.028 19.729-3.959 0.785 0 1.502 0.41 1.946 1.024 0.444 0.649 0.546 1.434 0.307 2.185-0.171 0.512-0.102 1.058 0.239 1.638 0.58 0.99 1.707 1.843 2.867 2.082 2.355 0.478 4.949-0.341 7.714-1.229l0.375-0.102c9.865-3.14 20.139-5.154 30.481-5.973 0.819-0.068 2.219-0.171 3.516 0.478 1.229 0.614 1.911 1.638 2.389 2.389 0.205 0.307 0.444 0.649 0.58 0.785 0.58 0.512 2.321 0.205 3.106 0.068l14.711-2.594c1.331-0.205 2.56 0.649 2.799 1.98 0.239 1.297-0.649 2.56-1.946 2.799l-14.711 2.594c-1.673 0.273-4.813 0.853-7.134-1.195-0.649-0.546-1.058-1.195-1.434-1.707-0.171-0.273-0.444-0.683-0.58-0.751-0.137-0.034-0.717 0-0.956 0.034-10.001 0.785-19.866 2.731-29.423 5.769l-0.375 0.102c-2.355 0.683-4.949 1.502-7.68 1.502z"></path>
<path fill="#000" d="M1082.334 895.010c-1.775 0-3.516-0.444-5.052-1.707-1.092-0.887-1.775-1.98-2.389-2.935-0.58-0.887-1.092-1.673-1.638-1.946-0.41-0.171-1.092-0.171-1.707-0.137-4.267 0.205-8.499 1.707-11.947 4.233-1.468 1.058-3.891 2.867-6.622 1.707-2.219-0.956-2.833-3.14-3.243-4.608-0.137-0.444-0.239-0.922-0.444-1.331-0.614-1.263-2.526-1.741-4.062-1.434-2.082 0.375-4.028 1.775-5.905 3.14-1.092 0.785-2.594 0.546-3.379-0.546s-0.546-2.594 0.546-3.379c2.082-1.502 4.71-3.379 7.851-3.959 3.345-0.649 7.646 0.58 9.318 4.13 0.307 0.649 0.546 1.399 0.751 2.116 0.137 0.478 0.375 1.297 0.546 1.502 0.273-0.068 1.331-0.853 1.775-1.195 4.198-3.106 9.353-4.915 14.575-5.188 1.161-0.068 2.56-0.034 3.891 0.58 1.877 0.853 2.901 2.423 3.755 3.721 0.478 0.717 0.922 1.399 1.399 1.809 1.707 1.365 5.052 0.137 7.782-0.853 5.803-2.15 11.913-3.277 18.091-3.311 0.717 0.034 3.209 0.102 4.676 1.741 0.137 0.137 0.239 0.307 0.341 0.444 1.399 0.068 2.833-0.341 4.403-0.751 3.106-0.751 6.622-1.638 9.83 0.41 0.512 0.341 0.99 0.717 1.468 1.126 0.307 0.273 0.58 0.512 0.922 0.717 1.604 0.99 4.13 0.137 6.588-0.683l0.751-0.239c4.915-1.604 10.24-2.185 15.36-1.638 2.048 0.205 4.13 0.58 6.178 0.922 5.837 1.024 11.298 1.98 15.565-0.683 1.126-0.717 2.628-0.375 3.345 0.751s0.375 2.628-0.751 3.345c-5.837 3.686-12.527 2.492-18.978 1.365-1.946-0.341-3.891-0.683-5.803-0.887-4.437-0.444-9.079 0.034-13.38 1.434l-0.751 0.239c-3.174 1.058-7.134 2.355-10.65 0.239-0.546-0.341-1.058-0.751-1.536-1.195-0.273-0.239-0.58-0.512-0.887-0.717-1.399-0.887-3.209-0.512-6.076 0.205-2.458 0.614-5.257 1.297-8.021 0.58-0.887-0.239-1.57-0.956-1.741-1.809-0.205-0.034-0.478-0.102-0.785-0.102-5.632 0.068-11.196 1.092-16.486 3.038-2.219 0.785-4.881 1.741-7.475 1.741z"></path>
<path fill="#000" d="M914.193 840.875c-0.307 0-0.614-0.068-0.922-0.171-9.318-3.857-16.009-13.858-17.033-25.463-0.785-8.875 1.468-18.603 6.861-29.696 0.956-1.98 2.15-4.164 4.437-5.393 1.946-1.024 4.062-0.99 5.632-0.99l251.494 3.072c0.99 0 1.911 0.649 2.253 1.604s0.068 2.014-0.683 2.662c-2.697 2.321-4.062 6.417-3.652 10.957 0.375 4.267 2.082 8.294 4.13 12.766 3.618 7.919 7.509 15.906 11.605 23.654 0.614 1.195 0.171 2.628-1.024 3.277s-2.628 0.171-3.277-1.024c-4.13-7.851-8.090-15.906-11.742-23.927-2.116-4.676-4.062-9.318-4.54-14.336-0.341-3.994 0.375-7.782 2.014-10.854l-246.647-3.004c-1.161 0-2.458-0.034-3.311 0.41-0.99 0.512-1.707 1.877-2.355 3.209-4.983 10.308-7.066 19.183-6.383 27.17 0.853 9.83 6.383 18.227 14.063 21.402 1.229 0.512 1.809 1.911 1.297 3.174-0.375 0.956-1.263 1.502-2.219 1.502z"></path>
<path fill="#000" d="M1160.021 837.495c-0.785 0-1.536-0.375-2.014-1.058-4.881-7.202-9.899-14.643-12.766-23.211-3.277-9.762-2.867-19.627 1.126-27.102 0.614-1.195 2.082-1.638 3.277-0.99 1.195 0.614 1.638 2.082 0.99 3.277-3.345 6.281-3.652 14.78-0.785 23.279 2.662 7.919 7.509 15.087 12.186 22.050 0.751 1.092 0.444 2.628-0.649 3.345-0.444 0.273-0.922 0.41-1.365 0.41z"></path>
<path fill="#000" d="M927.778 840.943c-0.649 0-1.331-0.273-1.809-0.785-6.281-6.963-9.762-16.282-9.591-25.634 0.068-4.779 1.092-9.489 2.116-13.483 1.263-5.052 2.765-10.103 4.471-15.019 0.444-1.263 1.809-1.946 3.072-1.502s1.911 1.809 1.502 3.072c-1.673 4.779-3.14 9.694-4.335 14.575-0.956 3.925-1.877 8.124-1.946 12.39-0.137 8.124 2.901 16.282 8.363 22.323 0.887 0.99 0.819 2.526-0.171 3.413-0.512 0.444-1.092 0.649-1.673 0.649z"></path>
<path fill="#000" d="M1028.267 831.727c-3.004 0-4.267-2.97-4.983-4.574l-0.341-0.785c-1.195-2.526-4.813-3.413-7.612-2.833-3.447 0.751-6.622 3.174-9.387 5.359-0.751 0.58-1.775 0.683-2.594 0.239-0.853-0.444-1.331-1.331-1.297-2.253l0.205-4.096c-8.226 0.785-16.384 2.287-24.303 4.471-1.297 0.375-2.628-0.41-2.97-1.673-0.341-1.297 0.41-2.628 1.673-2.97 9.114-2.526 18.534-4.164 27.955-4.881 0.683-0.034 1.365 0.205 1.877 0.683s0.751 1.161 0.717 1.843l-0.102 1.809c2.15-1.434 4.54-2.628 7.202-3.209 4.71-0.99 10.684 0.546 13.005 5.495 0.137 0.307 0.273 0.614 0.41 0.956 0.205 0.444 0.478 1.126 0.717 1.502 0.068-0.034 0.137-0.102 0.205-0.137 0.819-0.512 1.638-1.058 2.423-1.604 3.345-2.219 6.793-4.506 10.854-5.666 5.12-1.468 12.22-0.717 15.77 4.471l0.341 0.512c0.171 0.273 0.444 0.683 0.58 0.785 0.034 0 0.239 0.034 0.956-0.068 1.707-0.239 3.482-0.649 5.325-1.092 5.188-1.229 10.513-2.458 15.667-0.034 0.58 0.273 1.161 0.614 1.741 0.956 0.614 0.341 1.195 0.717 1.843 0.956 1.57 0.614 3.55 0.444 5.461 0.307l20.241-1.57c1.297-0.102 2.492 0.887 2.594 2.219s-0.887 2.492-2.219 2.594l-20.241 1.57c-2.219 0.171-4.949 0.375-7.543-0.614-0.956-0.375-1.843-0.853-2.594-1.297-0.444-0.273-0.922-0.546-1.399-0.751-3.584-1.707-7.919-0.717-12.459 0.375-1.877 0.444-3.823 0.887-5.769 1.161-1.195 0.171-2.594 0.239-3.959-0.478-1.161-0.649-1.843-1.673-2.321-2.389l-0.239-0.375c-2.082-3.072-6.827-3.584-10.445-2.56-3.345 0.956-6.349 2.97-9.523 5.052-0.819 0.546-1.673 1.092-2.492 1.638-0.546 0.341-1.468 0.922-2.662 1.024-0.102-0.102-0.205-0.068-0.307-0.068z"></path>
<path fill="#f1b20a" d="M711.753 496.368c93.469 23.302 149.238 122.428 124.563 221.403s-120.45 160.32-213.919 137.017c-93.469-23.302-149.238-122.428-124.563-221.403s120.45-160.32 213.919-137.017z"></path>
<path fill="#492f7a" d="M754.722 674.202c0 52.652-42.683 95.334-95.334 95.334s-95.334-42.683-95.334-95.334c0-52.652 42.683-95.334 95.334-95.334s95.334 42.683 95.334 95.334z"></path>
<path fill="#f1b20a" d="M670.652 632.32l7.339-31.573c0 0-1.638-3.345-5.359 0.546-3.174 3.311-7.475 8.841-9.455 11.571-0.444-3.379-3.311-6.007-6.827-6.007-3.209 0-5.905 2.219-6.69 5.188-1.058-2.492-3.516-4.233-6.383-4.233-3.004 0-5.495 1.911-6.485 4.54-1.263-1.673-3.243-2.799-5.53-2.799-3.823 0-6.929 3.106-6.929 6.929 0 0.273 0.034 0.546 0.068 0.819-1.195-1.092-2.799-1.775-4.54-1.775-3.789 0-6.827 3.072-6.827 6.827 0 0.375 0.068 0.751 0.102 1.126-0.887-0.444-1.911-0.751-2.97-0.751-3.686 0-6.656 2.97-6.656 6.656 0 2.321 1.161 4.335 2.935 5.53l-0.307 0.307c-0.922-1.468-2.526-2.423-4.403-2.423-2.867 0-5.222 2.321-5.222 5.222 0 1.673 0.785 3.14 2.014 4.096l-0.273 0.239-0.171 0.546c-0.512-0.171-1.092-0.307-1.673-0.307-2.867 0-5.222 2.321-5.222 5.222 0 2.321 1.536 4.267 3.652 4.949l-0.102 0.341-0.205 0.444c-0.341-0.068-0.683-0.102-1.024-0.102-2.867 0-5.222 2.321-5.222 5.222 0 1.365 0.546 2.594 1.399 3.516-2.731-0.41-14.131-1.604-32.188 3.277-20.821 5.666 20.309 61.611 20.309 61.611s14.302 0.887 20.821 0.717c6.519-0.171 18.876-2.662 18.876-2.662s0 23.996 0 24.883 0.546 1.946 2.458 1.946 6.349 0.171 6.349 0.171 1.229-0.171 1.775-1.399c0.546-1.229 0-28.774 0-28.774l3.721-1.399 0.171 28.945c0 0 0.546 1.399 1.604 1.604 1.058 0.171 7.782 0 7.782 0s1.229 0.171 1.399-2.458c0.171-2.662 0-33.724 0-33.724s9.079-6.383 13.039-22.665c1.195 0.137 2.389 0.239 3.652 0.239 17.203 0 31.164-13.961 31.164-31.164 0-13.21-8.294-24.508-19.968-29.013zM626.688 622.899c0-0.171 0.034-0.307 0.034-0.478 0-0.273-0.034-0.512-0.068-0.785 0.341 0.307 0.717 0.58 1.092 0.819l-1.058 0.444z"></path>
<path fill="#492f7a" d="M1083.092 413.053c98.478 27.781 154.461 134.841 125.042 239.124s-133.1 166.3-231.577 138.519c-98.478-27.781-154.461-134.841-125.042-239.124s133.1-166.3 231.577-138.519z"></path>
<path fill="#f1b20a" d="M1143.603 601.463c0 61.889-50.171 112.060-112.060 112.060s-112.060-50.171-112.060-112.060c0-61.889 50.171-112.060 112.060-112.060s112.060 50.171 112.060 112.060z"></path>
<path fill="#492f7a" d="M1122.748 606.72c6.656-10.103 9.387-11.059 13.21-14.677 4.13-3.891-1.536-4.471-1.536-4.471l-18.125-0.341c0 0 8.602-12.834 12.117-17.408s-2.014-4.574-2.014-4.574l-24.132-0.717c0 0-0.341-17.647 0-21.299s-2.833-1.775-2.833-1.775l-17.886 12.356c0 0-3.994-14.814-5.188-19.661-1.161-4.813-5.427-1.058-5.427-1.058l-15.531 18.364c0 0-6.724-17.067-9.182-19.763s-5.666-0.956-6.588 0.819c-0.956 1.775-1.877 18.364-3.311 24.951-0.239 1.058-0.444 1.877-0.614 2.594-0.375 0.034-15.462 1.434-26.010 12.151-5.188 5.461-8.363 12.834-8.363 20.958 0 15.599 11.708 28.467 26.829 30.31 0.034 0.102 0.068 0.137 0.068 0.137s10.991 3.277 34.304-2.526c0.751 3.447 1.741 7.339 3.038 11.469-6.11 1.331-14.848 3.959-20.378 8.943-9.182 8.226-11.059 15.292-11.776 20.719s6.11 7.543 10.138 5.666c3.994-1.877 5.666-3.755 6.827-8.704s3.072-10.581 11.059-14.131c2.833-1.229 5.393-2.219 7.543-2.97 0.614 1.502 1.263 3.038 1.98 4.574-2.321 1.331-4.847 3.038-6.929 5.222-5.188 5.427-8.943 10.82-10.82 16.247s-1.638 10.342 0 12.015c1.638 1.638 6.11 5.188 9.899 3.072 3.755-2.116 5.188-4.471 6.349-9.66s2.355-13.414 5.871-17.408c0.102-0.137 0.239-0.239 0.341-0.375 0.58 0.99 1.161 1.98 1.775 2.97 15.053 23.552 43.315 43.315 43.315 43.315l47.787-36.25c0-0.068-28.843-44.169-45.807-59.085z"></path>
<path fill="#000" d="M438.477 711.031c-19.593-16.691-70.622-26.487-70.622-26.487s22.938-3.891 44.134-32.119c23.347-31.13 25.088-70.656-12.698-111.923-48.503-52.975-197.495-34.304-200.567-12.937-0.717 4.949 4.233 378.778 4.233 378.778s0 9.182 9.182 9.899c9.182 0.717 179.371-4.949 179.371-4.949s75.571-10.581 86.869-79.087c11.298-68.574-19.319-103.629-39.902-121.173zM252.86 579.311c0 0 11.776-7.066 20.241-9.421s46.626-14.131 67.789 4.233 13.653 44.271 5.188 56.969c-8.465 12.698-43.315 18.364-43.315 18.364s-37.649 9.421-43.315-5.666c-5.666-15.019-6.588-64.478-6.588-64.478zM395.025 844.868c-15.053 17.408-55.569 20.719-66.389 21.197s-63.078-8.943-63.078-8.943 2.355-14.131 2.833-23.074c0.478-8.943-5.666-44.271-6.588-63.556-0.956-19.319-0.034-25.702 3.755-32.017 12.698-21.197 105.472-20.241 119.125-8.943s23.074 30.14 23.552 54.135c0.444 23.996 1.843 43.759-13.21 61.201z"></path>
<path fill="#000" d="M1344.41 617.711l3.516-122.88-93.218-0.717c0 0 1.399 293.786-0.717 341.094s-5.666 73.455-5.666 73.455 43.793 2.833 62.839 0.717 29.662-4.233 29.662-4.233l1.399-148.309c0 0 60.723 58.607 79.087 81.92s50.859 65.673 50.859 65.673l89.702-0.717c0 0 3.516-2.116-2.116-8.465-5.666-6.349-100.284-144.077-115.814-162.441s-39.561-45.909-39.561-45.909l134.178-125.713-54.374-66.389-139.776 122.914z"></path>
<path fill="#000" d="M1811.9 513.877l1.638 65.434c0 0 0.956 6.588-9.421 7.987s-107.349-27.546-121.924 11.776c-8.602 23.108-2.355 37.205 5.666 41.916 7.987 4.71 44.715 22.118 80.043 30.618 35.294 8.465 66.389 25.429 76.254 53.658 9.899 28.262 5.188 83.319-9.899 120.047-15.053 36.727-35.294 53.214-73.455 57.924-38.127 4.71-77.687-0.956-104.038 0s-51.302 1.399-54.135-12.698c-2.833-14.131-0.478-75.81 8.943-78.165s50.859 0.956 73.933 1.877c23.074 0.956 51.302 1.877 59.324-15.531 7.987-17.408 17.408-51.302-6.11-71.578-23.552-20.241-155.614-14.814-147.354-132.779 4.096-58.778 55.091-75.81 80.043-81.92s64.956-15.531 125.235-8.943c12.698 1.434 15.258 10.377 15.258 10.377z"></path>
<path fill="#fff" d="M231.424 674.816c0.819 3.072 1.604-1.911 1.638 0.819-0.375-28.877-1.161-65.911-0.41-98.714-0.887-1.297-1.638 0.785-1.57 1.57-0.887 18.057-0.546 54.477-0.546 54.477s0.887 41.847 0.887 41.847zM239.684 721.271c1.126 4.676 2.253-2.867 2.287 1.229-0.546-43.622-1.638-99.567-0.58-149.060-1.229-1.946-2.287 1.195-2.185 2.355-1.229 27.238-0.751 82.261-0.751 82.261s1.229 63.249 1.229 63.215zM224.051 715.127c0 0 1.229-70.007 1.229-70.007s0.478-60.894-0.751-91.068c0.102-1.297-0.956-4.779-2.185-2.628 1.058 54.818-0.034 116.77-0.58 165.069 0.034-4.54 1.126 3.789 2.287-1.365zM443.426 744.721c-6.212-16.93-22.63-27.75-31.881-32.7-5.939-3.174-22.391-9.933-29.321-11.81-36.864-9.865-68.915-11.196-103.526-11.093 18.534-3.209 36.83-7.782 54.682-13.619 1.877-0.614 3.755-1.195 5.666-1.809 13.346-4.198 27.17-8.567 35.635-19.866 4.574-6.11 12.186-18.398 14.404-27.068 7.919-30.959 3.311-60.553-12.971-83.354-7.373-10.308-23.45-21.060-37.376-25.020-5.905-1.673-11.947-2.185-19.183-2.423-37.239-1.263-74.001 4.164-109.261 16.213l-1.195 0.41 0.034 1.263c0 0.137 0 0.239 0 0.375l-0.171 0.102c0.068 0.102 0.137 0.171 0.171 0.273 0.205 7.919 0.478 15.838 0.751 23.723 0.649 19.729 1.331 40.175 1.058 60.382-0.102 7.987 0.41 19.354 0.956 31.369 0.58 13.073 1.195 26.624 0.956 35.465-0.717 24.815-0.205 44.442 0.341 65.229 0.512 19.012 1.024 38.639 0.58 63.317-0.137 7.543-0.068 15.223-0.034 22.63 0.068 8.738 0.137 17.749-0.102 26.624-0.137 4.335-0.307 8.294-0.58 12.049-0.034 0.649-0.171 1.434-0.307 2.219-0.307 1.911-0.683 4.13-0.239 6.076h-0.171c-0.307 2.867-0.683 5.734-1.126 8.636-0.375 2.56-0.819 5.495 0.58 8.090 0.956 1.775 2.628 2.97 3.959 3.823 4.813 3.038 10.445 4.471 16.077 4.471 10.24 0 20.617-4.745 26.658-13.244 10.65-1.57 36.762-3.345 77.687-5.222l2.628-0.137c8.021-0.375 62.805-10.001 79.019-22.596 12.049-9.353 18.91-25.702 23.006-37.205 4.198-11.674 9.045-26.965 9.421-41.779 0.41-15.906-1.809-30.174-6.827-43.793zM249.378 525.141l-0.102 3.959c-2.253 6.588-7.885 12.049-14.711 13.653-7.817 1.809-16.452-1.604-21.197-8.021 11.844-3.959 23.859-7.134 36.011-9.591zM213.299 558.114c-0.205-6.281-0.41-12.595-0.58-18.876 4.574 4.642 11.093 7.407 17.613 7.407 1.673 0 3.379-0.171 5.018-0.58 5.564-1.297 10.411-4.813 13.756-9.421l-0.956 38.502c-0.751 31.437-1.536 63.966-0.956 95.983 0.273 13.824 0.785 27.853 1.263 41.404 0.819 21.811 1.638 44.373 1.399 66.56-0.273 25.498 1.536 51.268 3.277 76.186 0.614 8.977 1.229 18.193 1.775 27.375-7.236 3.584-13.892 5.53-20.207 5.871-6.656 0.307-15.258-0.99-18.466-4.71-0.887-1.024-0.478-3.618-0.137-5.734 0.137-0.922 0.273-1.775 0.341-2.526 0.273-3.789 0.444-7.782 0.58-12.186 0.239-8.909 0.171-17.988 0.102-26.726-0.068-7.407-0.102-15.053 0.034-22.528 0.444-24.747-0.068-44.442-0.58-63.488-0.546-20.719-1.092-40.311-0.341-65.024 0.273-8.977-0.341-22.562-0.956-35.703-0.546-11.981-1.058-23.279-0.956-31.164 0.341-20.378-0.341-40.823-1.024-60.621zM217.566 901.222c-1.058-0.649-2.185-1.468-2.765-2.56-0.853-1.604-0.512-3.823-0.205-6.007 0.273-1.707 0.512-3.413 0.717-5.12 6.315 4.847 18.159 4.437 19.593 4.369 6.417-0.307 13.073-2.219 20.241-5.598 0.137 2.423 0.307 4.847 0.41 7.236-8.431 11.639-25.907 15.258-37.99 7.68zM446.839 788.343c-0.375 14.336-5.12 29.286-9.216 40.721-3.959 11.093-10.547 26.829-21.879 35.635-15.531 12.083-70.076 21.572-77.073 21.879l-2.628 0.137c-15.155 0.717-60.279 2.799-77.141 5.154-0.614-12.288-1.468-24.747-2.321-36.83-1.741-24.849-3.55-50.551-3.277-75.913 0.239-22.255-0.58-44.851-1.399-66.731-0.512-13.551-1.024-27.58-1.263-41.335-0.58-31.949 0.205-64.444 0.956-95.846l1.092-45.636c0.546-1.741 0.922-3.516 1.058-5.325 21.572-4.028 43.554-5.7 65.707-4.915 6.997 0.239 12.8 0.717 18.398 2.321 13.278 3.755 28.57 13.961 35.533 23.723 15.667 21.948 20.105 50.517 12.459 80.486-1.877 7.373-8.397 18.603-13.824 25.873-7.817 10.445-21.094 14.609-33.929 18.671-1.911 0.614-3.823 1.195-5.734 1.843-26.112 8.567-53.248 14.336-80.589 17.135l0.205 3.413 5.564-0.068c42.94-0.512 80.043-0.956 123.87 10.786 6.588 1.775 22.938 8.465 28.604 11.503 8.806 4.71 24.439 15.019 30.276 30.857 4.813 13.21 6.963 27.102 6.554 42.462zM233.847 882.347c0.239 0 13.551-5.666 13.756-15.462 0.102-3.959-3.209-7.168-7.168-7.168-2.935 0-5.427 1.741-6.554 4.267-1.161-2.458-3.618-4.13-6.485-4.13-3.959 0-7.339 3.209-7.168 7.168 0.478 9.455 13.38 15.326 13.619 15.326z"></path>
<path fill="#fff" d="M1309.935 785.886c0 0.034 4.233-82.398 4.233-82.398s5.052-74.206 3.413-110.865c0.102-1.57-1.263-5.803-2.935-3.174 1.434 66.594-7.543 136.602-8.26 195.277 0.068-5.53 2.014 7.441 3.55 1.161zM1301.845 628.053c2.321-29.457 4.506-57.276 2.253-86.46-0.068-0.956-0.887-1.707-1.843-1.57-0.956 0.068-1.638 0.887-1.57 1.843 2.253 28.911 0.068 56.593-2.253 85.914-0.58 7.168-1.126 14.37-1.638 21.572-0.887 12.732-2.253 76.322-1.775 89.156 1.741 45.5 0.853 63.215-1.161 102.025-0.41 8.090-0.887 17.067-1.365 27.443-0.034 0.956 0.683 1.741 1.638 1.775 0.034 0 0.068 0 0.068 0 0.922 0 1.673-0.717 1.707-1.638 0.478-10.342 0.956-19.319 1.365-27.409 1.98-38.912 2.901-56.695 1.161-102.332-0.478-12.356 0.922-76.493 1.775-88.781 0.512-7.202 1.058-14.404 1.638-21.538zM1537.536 877.636c-7.953-7.578-13.244-14.234-19.934-22.665-2.219-2.799-4.574-5.734-7.202-8.977-1.741-2.116-5.7-7.987-9.523-13.687-4.096-6.076-7.987-11.844-9.83-14.097-4.983-6.042-10.445-14.37-15.735-22.46-5.393-8.226-10.479-15.974-14.814-21.026-30.345-35.294-51.746-62.669-70.315-86.972 10.411-9.421 21.026-18.876 31.642-28.365 33.451-29.867 68.028-60.723 99.738-92.228 0.717-0.717 2.082-2.082 2.048-3.925 0-1.161-0.546-2.287-1.604-3.413-3.209-3.516-5.871-6.588-8.397-9.591-5.564-6.554-10.377-12.186-18.33-18.295-1.843-1.434-3.55-4.471-5.325-7.714-2.697-4.881-5.769-10.411-10.752-13.244-0.717-0.41-1.638-0.239-2.15 0.41-10.752 13.551-23.313 24.542-36.659 36.147l-3.618 3.174c-4.335 3.789-11.947 10.547-21.231 18.807-24.166 21.47-59.938 53.248-77.722 67.994 2.014-37.274 1.911-78.029-0.375-127.625-0.034-0.444-0.205-0.887-0.546-1.195s-0.785-0.478-1.229-0.444c-23.723 1.331-49.22-0.444-66.321-1.946-0.887-0.068-1.741 0.614-1.843 1.536-0.068 0.922 0.614 1.741 1.536 1.843 16.794 1.468 41.609 3.243 65.092 2.048 2.253 50.142 2.287 91.238 0.102 128.853-0.273 0.444-0.273 0.99-0.068 1.502-0.034 0.546-0.068 1.092-0.102 1.638-0.341 5.461-0.751 10.923-1.161 16.384-0.341 4.471-0.683 8.977-0.956 13.449-0.478 7.509-2.15 79.053-2.048 105.609 0.034 11.571-0.102 23.552-0.239 35.123-0.273 24.201-0.546 49.186 0.785 73.284-0.205-0.137-0.444-0.205-0.717-0.239-13.858-1.195-27.204 1.673-40.107 4.437-7.1 1.536-14.404 3.106-21.811 3.994-0.102-2.594-0.205-5.257-0.307-7.919 1.843 0.102 3.686 0.205 5.53 0.205 9.387 0 18.842-1.468 27.716-4.369 0.853-0.273 1.673-0.546 2.526-0.853 4.369-1.502 8.499-2.901 12.732-2.628 0.614 0.034 1.229 0.102 1.843 0.171 2.833 0.307 6.007 0.649 8.533-1.399 0.717-0.58 0.853-1.673 0.239-2.389-0.58-0.717-1.673-0.853-2.389-0.239-1.399 1.161-3.652 0.922-6.007 0.649-0.683-0.068-1.331-0.137-1.98-0.171-4.949-0.307-9.557 1.263-14.063 2.799-0.819 0.273-1.638 0.58-2.492 0.819-10.308 3.345-21.47 4.71-32.324 3.994-1.195-38.059-0.375-82.807 2.389-127.727 0.341-5.461 0.751-10.957 1.161-16.418 0.341-4.471 0.683-8.943 0.956-13.449 2.321-35.226 2.185-70.997 2.048-105.609-0.137-35.806-0.273-72.841-2.423-109.295-0.068-0.922-0.853-1.673-1.775-1.604s-1.638 0.853-1.604 1.775c2.185 36.352 2.287 73.353 2.423 109.124 0.137 34.543 0.273 70.281-2.048 105.37-0.307 4.471-0.614 8.943-0.956 13.414-0.41 5.495-0.819 10.957-1.161 16.452-3.072 50.278-3.755 100.42-1.911 141.21 0.034 0.478 0.239 0.887 0.58 1.195 0.307 0.273 0.717 0.41 1.092 0.41 0.068 0 0.137 0 0.171 0 8.192-0.887 16.213-2.594 23.962-4.267 13.244-2.833 25.737-5.53 39.083-4.369 0.444 0.034 0.853-0.102 1.195-0.375 0.205 0.717 0.819 1.263 1.604 1.263 0.034 0 0.068 0 0.102 0 0.922-0.068 1.638-0.853 1.604-1.775-1.468-24.713-1.161-50.517-0.853-75.469 0.137-11.571 0.273-23.586 0.239-35.191-0.034-13.722-0.102-27.648 0-41.643 14.199 8.533 22.835 16.452 35.738 28.331l4.949 4.574c6.076 5.564 11.674 12.459 17.067 19.149 4.164 5.154 8.465 10.479 12.971 15.155l0.99 1.024c12.595 13.039 22.528 23.347 34.611 40.892 5.939 8.636 15.087 19.661 23.893 30.31 5.461 6.588 10.615 12.8 14.95 18.398 0.137 0.717 0.512 1.297 1.092 1.775 0.922 0.751 2.287 1.058 4.198 1.058 2.594 0 6.246-0.546 11.366-1.331 10.615-1.604 26.692-4.062 46.626-3.038 2.662 0.068 4.267-0.683 4.915-2.219 1.195-2.628-1.365-6.519-9.079-13.892zM1478.724 514.731c3.516 2.56 6.007 7.1 8.26 11.162 1.98 3.55 3.823 6.929 6.246 8.772 7.646 5.905 12.151 11.162 17.818 17.818 2.56 3.004 5.222 6.144 8.499 9.694 0.58 0.649 0.683 1.024 0.683 1.195 0 0.41-0.717 1.126-1.058 1.468-2.287 2.253-4.574 4.506-6.895 6.758-0.068-0.068-0.137-0.171-0.205-0.239-2.833-1.98-7.68-7.509-11.23-11.537-1.843-2.116-3.447-3.925-4.471-4.915-0.785-0.785-2.97-3.14-5.734-6.178-12.561-13.722-19.831-21.333-22.255-22.255-0.034 0-0.102 0-0.137-0.034 3.652-3.755 7.168-7.646 10.479-11.708zM1472.171 882.108c-1.946-2.389-3.959-4.813-6.042-7.305-8.772-10.581-17.852-21.538-23.723-30.071-12.22-17.783-22.255-28.16-34.953-41.335l-0.99-1.024c-4.403-4.574-8.67-9.83-12.8-14.916-5.495-6.758-11.162-13.79-17.408-19.524l-4.949-4.54c-13.346-12.288-22.153-20.378-37.239-29.321-0.239-0.137-0.512-0.205-0.751-0.205 0.102-10.513 0.273-21.026 0.649-31.539 0.239 0.068 0.512 0.068 0.887 0.034 54.579 53.658 142.95 151.415 138.103 139.23-1.195-2.97-39.185-42.53-40.243-43.315-20.651-22.767-54.613-55.33-54.613-55.33s-30.583-31.812-40.619-42.257c6.451-5.939 32.188-29.389 44.749-43.759 0 0 26.487-25.771 47.684-46.251 0.956-0.922 26.283-23.859 20.139-22.596-5.018 1.024-78.541 75.127-115.849 109.193 0.307-7.817 0.683-15.633 1.195-23.381 0.307-4.471 0.614-8.943 0.956-13.414 0.41-5.461 0.819-10.957 1.161-16.418 0.034-0.614 0.068-1.229 0.102-1.809 16.828-13.687 54.886-47.514 80.213-70.042 9.284-8.226 16.896-15.019 21.197-18.807l3.618-3.174c7.919-6.895 16.009-13.961 23.586-21.606 0.137 0.478 0.478 0.887 0.956 1.092 2.287 0.956 14.916 14.746 20.958 21.367 2.901 3.174 4.983 5.461 5.871 6.281 0.922 0.887 2.492 2.662 4.267 4.745 3.755 4.301 8.397 9.591 11.571 11.913-29.082 28.297-60.143 56.047-90.317 82.978-11.059 9.865-22.016 19.661-32.836 29.423-0.649 0.58-0.751 1.57-0.205 2.287 18.807 24.644 40.482 52.395 71.407 88.337 4.198 4.881 9.216 12.561 14.541 20.651 5.359 8.124 10.854 16.555 15.94 22.733 1.741 2.15 5.769 8.090 9.66 13.824 4.062 6.007 7.885 11.708 9.728 13.926 2.628 3.209 4.983 6.178 7.202 8.943 5.018 6.281 9.25 11.605 14.37 17.067-7.373 1.434-20.173 3.174-25.429 3.891l-4.13 0.58c-5.837 0.853-21.367 3.174-27.273 3.379-0.102 0-0.205 0.034-0.341 0.068zM1541.939 890.436c-20.241-1.058-36.523 1.434-47.275 3.072-5.871 0.887-11.913 1.809-12.834 1.092 0-0.341-0.137-0.683-0.341-0.99-2.048-2.628-4.301-5.427-6.656-8.294 7.031-0.546 20.173-2.492 25.463-3.277l4.096-0.58c5.803-0.785 20.821-2.799 27.75-4.369 0.99 0.99 2.014 2.014 3.072 3.038 8.226 7.851 8.397 9.899 8.431 10.103 0-0.034-0.307 0.205-1.707 0.205zM1328.879 526.507c0.922-0.102 1.604-0.956 1.468-1.877-0.102-0.922-0.99-1.638-1.877-1.468-2.355 0.273-4.745-0.58-7.27-1.468-2.014-0.717-4.13-1.468-6.383-1.707-1.775-0.171-3.55 0-5.052 0.205-2.799 0.375-5.598 0.99-8.26 1.57-3.209 0.683-6.485 1.434-9.762 1.741-6.724 0.683-12.425-0.717-16.111-3.891-0.717-0.614-1.775-0.546-2.389 0.171s-0.546 1.775 0.171 2.389c4.437 3.857 10.172 4.881 15.053 4.881 1.263 0 2.492-0.068 3.618-0.171 3.447-0.341 6.861-1.092 10.138-1.809 2.628-0.58 5.325-1.161 8.021-1.536 1.297-0.171 2.833-0.341 4.267-0.205 1.843 0.171 3.652 0.819 5.564 1.536 2.799 0.956 5.666 2.014 8.806 1.638z"></path>
<path fill="#492f7a" d="M540.501 237.943c-2.833-0.102-5.291 2.321-6.178 5.018s-0.58 5.632-0.273 8.465c1.911 17.033 3.823 34.065 5.769 51.132 0.171 1.434 5.598 5.803 7.919 5.598 27.511-2.662 54.989-5.325 82.5-7.953-0.341 22.767-1.673 46.421-2.048 69.188-0.239 14.268-2.253 64.41-2.219 69.359 0.102 19.866-6.007 56.559 0.102 57.037 17.647 1.399 41.643 2.082 62.054 3.755 2.901-1.638 3.311-6.246 3.277-9.591-0.853-60.928-1.707-121.856-2.526-182.818 27.409-1.365 58.505-5.188 85.743-8.602 1.297-19.763-1.946-28.262-3.311-48.026-0.137-1.843 0.785-16.316-1.161-16.486-26.351-2.185-56.183 1.092-82.637 1.161-13.449 0.034-148.548 2.594-147.012 2.765z"></path>
<path fill="#fff" d="M765.474 285.457c-0.683-13.722-1.775-27.58-3.209-41.301-0.102-0.887-0.853-1.536-1.741-1.502-2.355 0.102-4.642 0.171-6.963 0.239-0.307-0.341-0.717-0.546-1.195-0.546-0.546 0-1.024 0.273-1.331 0.649-29.047 1.058-57.105 1.877-84.275 2.697-30.208 0.887-61.44 1.809-93.935 3.038-6.246 0.239-16.111 0.034-25.088-0.307-0.171-0.512-0.307-0.99-0.478-1.502-0.273-0.887-1.229-1.365-2.15-1.092-0.512 0.171-0.887 0.58-1.058 1.058-0.41-0.512-1.126-0.785-1.809-0.58-0.785 0.239-1.263 1.024-1.161 1.809-0.068 0-0.171 0-0.239 0-0.956-0.068-1.741 0.683-1.775 1.604s0.683 1.741 1.604 1.775c0.41 0.034 0.887 0.034 1.297 0.068 0.375 1.468 0.649 2.935 0.683 4.403 0.034 1.024-0.034 2.048-0.137 3.072-0.034 0.512-0.068 1.058-0.102 1.57-0.102 1.809-0.034 3.618 0.034 5.495 0.137 4.506 0.273 9.148 0.887 13.722l0.273 1.877c0.444 3.209 0.819 6.246 0.239 9.114h-0.273c-0.853 0-1.707 0.751-1.707 1.673s0.751 1.707 1.673 1.707h1.092c0 0 0 0 0.034 0 0.171 0.068 0.341 0.068 0.546 0.068 0.102 0 0.171-0.068 0.273-0.102l92.501 1.297c-1.297 7.851-0.785 15.872-0.273 23.654 0.239 3.721 0.478 7.612 0.512 11.366 0.068 7.475-0.683 15.053-1.399 22.426-0.273 2.867-0.58 5.734-0.785 8.602-0.819 10.035-1.092 20.173-1.365 30.003l-0.99 35.157c-0.239 8.67-0.478 17.613-0.137 26.453 0.102 2.287 0.239 4.608 0.375 6.929 0.341 5.53 0.649 11.196 0.375 16.759 0 0.034-0.034 0.068-0.034 0.102s0 0.068 0 0.102c-0.137 2.389-0.375 4.779-0.751 7.134-0.614 0.034-1.229 0.034-1.843 0.102-0.922 0.068-1.638 0.887-1.536 1.843 0.068 0.922 0.887 1.604 1.843 1.536 0.683-0.068 1.365-0.068 2.082-0.102 0.171 0.102 0.341 0.171 0.546 0.239 0.102 0.034 0.239 0.034 0.341 0.034 0.375 0 0.751-0.137 1.058-0.375 13.107-0.819 26.283-0.239 39.219 1.911 1.468 0.239 2.867 0.512 3.686 1.331 0.341 0.307 0.751 0.478 1.195 0.478s0.887-0.171 1.229-0.512c0.375-0.375 0.512-0.853 0.444-1.365 0.307 0.239 0.683 0.41 1.092 0.41 0.034 0 0.068 0 0.102 0 0.922-0.034 1.638-0.853 1.604-1.775-0.649-11.571-1.536-23.347-2.423-34.714-2.048-26.556-4.198-54.033-2.901-80.623 0.478-9.694 1.092-28.672 0.751-38.434-0.205-5.973-0.41-27.477-0.034-29.321 0.717-3.038 6.588-4.847 11.878-5.53 11.264-1.468 22.562-2.287 33.485-3.072 10.991-0.819 22.323-1.638 33.69-3.106 1.536-0.205 4.062-0.512 5.53-2.526 1.092-1.707 0.99-3.755 0.922-5.12zM550.98 290.884l-3.686-0.068c0.512-3.209 0.102-6.451-0.341-9.626l-0.239-1.843c-0.58-4.403-0.717-8.977-0.853-13.449-0.068-1.707-0.102-3.447-0.034-5.154 0.034-0.512 0.068-0.99 0.102-1.502 0.068-1.161 0.171-2.287 0.137-3.447-0.034-0.717-0.102-1.434-0.205-2.15 3.686 11.708 6.997 24.474 5.086 36.966 0 0.137 0.034 0.205 0.034 0.273zM681.131 488.073c0 0.034 0 0.034 0 0.068-1.502-1.399-3.482-1.843-5.393-2.15-12.8-2.082-25.805-2.697-38.741-2.014 0.273-1.741 0.444-3.482 0.58-5.222l16.009 0.649c1.638 0.068 3.243 0.137 4.881 0.137 0.239 0 0.478 0 0.717 0 2.355-0.034 4.71-0.205 6.997-0.41l14.302-1.126c0.205 3.379 0.444 6.758 0.649 10.069zM724.958 292.762c-10.957 0.819-22.323 1.638-33.655 3.106-4.949 0.649-13.414 2.526-14.746 8.124-0.58 2.423-0.171 26.829-0.034 30.208 0.341 9.66-0.273 28.535-0.751 38.161-1.297 26.795 0.853 54.374 2.901 81.067 0.546 6.963 1.058 14.097 1.57 21.231l-14.336 1.126c-2.219 0.171-4.54 0.375-6.793 0.375-1.775 0.034-3.584-0.068-5.495-0.137l-15.906-0.649c0.137-5.188-0.137-10.411-0.444-15.497-0.137-2.287-0.273-4.574-0.375-6.861-0.375-8.704-0.102-17.613 0.137-26.283l0.99-35.089c0.273-9.762 0.546-19.9 1.365-29.833 0.239-2.867 0.512-5.7 0.785-8.567 0.717-7.441 1.468-15.121 1.399-22.767-0.034-3.857-0.307-7.782-0.546-11.537-0.512-8.226-1.058-16.725 0.58-24.747 0.102-0.478-0.034-1.024-0.341-1.399s-0.785-0.614-1.297-0.649l-85.709-1.195c2.014-13.449-1.604-26.897-5.495-39.117 8.67 0.307 18.057 0.512 24.098 0.273 32.495-1.195 63.727-2.15 93.935-3.038 26.999-0.785 54.886-1.638 83.729-2.662-0.341 14.643-0.102 29.457 0.649 44.134-8.772 0.922-17.613 1.604-26.214 2.219zM761.719 288.529c-0.546 0.751-1.911 0.99-3.243 1.161-1.263 0.171-2.56 0.307-3.823 0.444-0.751-14.575-0.956-29.286-0.649-43.861 1.707-0.068 3.379-0.102 5.086-0.171 1.365 13.107 2.355 26.419 3.038 39.526 0.034 1.161 0.034 2.253-0.41 2.901z"></path>
<path fill="#f1b20a" d="M824.286 161.485c-0.375-2.423-2.697-4.608-4.403-6.383-2.082-2.116-5.359-2.389-8.329-2.458-9.728-0.273-19.456-0.137-29.184 0.444-4.915 0.307-10.547 1.092-13.244 5.222-1.775 2.697 0.819 33.997 0.717 46.353-0.102 14.78-0.751 76.834 0.956 93.116 2.253 21.777 2.526 43.725 2.833 65.638 0.273 20.821 0.58 41.609 0.853 62.43 0.034 1.468 0.068 3.004 0.853 4.233 1.468 2.321 4.745 2.423 7.509 2.287 13.619-0.683 27.341-2.321 40.96-3.004 1.195-0.068 4.642-1.024 5.666-1.638 1.843-1.161 1.434-3.959 1.638-6.11 3.857-41.131 2.594-77.926 0.614-121.481 33.621-2.15 68.369-4.915 101.99-7.066 3.755 42.598 3.516 95.573 14.029 135.441 14.677-5.734 29.321-11.503 43.998-17.237 1.399-0.546 2.867-1.126 3.891-2.219 1.707-1.843 1.297-2.867 1.297-5.393-0.068-80.213-1.468-162.236-5.222-242.347-0.102-2.389-0.307-5.018-2.014-6.724-2.048-2.082-5.393-1.946-8.329-1.673-10.991 1.126-21.948 2.594-32.87 4.335-1.331 0.205-2.731 0.444-3.823 1.195-2.526 1.707-2.833 5.222-2.867 8.294-0.341 24.678-0.922 47.309-1.229 71.987-8.943 0-105.233 3.516-105.233 3.516s-2.901-14.234-3.55-18.534c-0.956-6.349-5.359-47.957-7.509-62.225z"></path>
<path fill="#000" d="M990.583 336.725c-0.171-14.199-2.731-133.7-3.925-169.301 0.307-0.375 0.41-0.887 0.171-1.365-0.068-0.102-0.137-0.171-0.205-0.239-0.102-2.731-0.171-4.915-0.273-6.349l-0.068-1.365-1.331 0.239c-6.383 1.092-12.766 2.355-18.944 3.55s-12.595 2.458-18.944 3.55l-1.024 0.171 0.034 1.058c0.068 2.833 0.068 5.666 0.102 8.533-0.41 0.375-0.512 1.024-0.205 1.502 0.068 0.102 0.137 0.137 0.239 0.205 0.273 23.279-0.171 46.729-1.468 69.905-6.861-0.171-13.653-0.205-20.275-0.205-4.403 0-8.806-0.034-13.244-0.068-13.483-0.171-27.17 0.102-40.38 0.341-12.868 0.239-26.146 0.512-39.253 0.375-3.584-26.795-8.465-53.726-14.507-80.077l-0.205-0.887-0.922-0.034c-11.605-0.649-22.528 0.068-35.635 1.058l-1.126 0.102v1.126c0.512 81.647 2.56 164.352 5.939 245.999-0.444 0.239-0.717 0.717-0.649 1.263 0.068 0.41 0.375 0.683 0.717 0.853 0.068 1.673 0.137 3.379 0.205 5.052l0.068 1.195 1.195-0.034c12.459-0.512 25.122-0.41 37.615 0.341 0.034 0 0.034 0 0.068 0 0.649 0 1.161-0.512 1.195-1.126 0.034-0.683-0.478-1.229-1.126-1.297-12.151-0.751-24.474-0.887-36.625-0.41-0.068-1.297-0.102-2.594-0.137-3.891l15.838-2.662c6.11-1.024 12.39-2.048 18.5-1.058l-0.171 6.554c-0.034 0.683 0.512 1.229 1.161 1.229 0.751 0.137 1.229-0.512 1.229-1.161l3.379-124.348c44.851-5.632 78.916-7.612 110.080-6.417 2.185 21.265 3.652 43.008 5.086 64.034 1.468 21.402 2.97 43.52 5.222 65.058 0 0.614 0.307 1.126 0.785 1.468 1.911 1.297 7.1-0.375 20.343-5.188 7.407-2.697 15.804-5.734 21.436-6.895l0.99-0.205-0.956-70.178zM966.451 164.284c5.734-1.126 11.639-2.287 17.545-3.311 0.068 1.331 0.137 3.072 0.205 5.086-2.935 1.399-6.178 2.287-9.421 2.492-1.331 0.068-2.662 0.068-4.028 0.034-0.887 0-1.809-0.034-2.697 0-6.861 0.102-13.551 1.911-19.524 5.188-0.034-2.014-0.034-4.028-0.068-6.042 6.042-1.092 12.117-2.287 17.988-3.447zM943.787 249.276c-0.819 4.676-2.321 9.387-3.823 13.926-2.458 7.407-4.949 15.087-4.369 23.006-2.014-0.068-4.062-0.137-6.11-0.171 0.102-0.137 0.239-0.239 0.273-0.41 3.277-12.015 6.246-24.269 8.875-36.42 1.741 0 3.447 0 5.154 0.068zM814.831 168.619c0.649 2.833 1.229 5.7 1.843 8.533-1.673 0.341-3.379-0.478-5.222-1.365-1.058-0.512-2.15-1.058-3.311-1.365-1.946-0.58-3.994-0.546-5.769-0.546l-20.753 0.102c0-1.434-0.034-2.867-0.034-4.301 12.117-0.922 22.46-1.57 33.246-1.058zM821.965 410.351c-6.417-0.956-13.073 0.137-18.978 1.092l-15.531 2.594c-3.277-78.882-5.222-158.754-5.837-237.705l20.719-0.102c1.707 0 3.482 0 5.086 0.444 0.956 0.273 1.946 0.751 2.97 1.229 1.741 0.853 3.55 1.707 5.495 1.707 0.444 0 0.853-0.068 1.297-0.171 4.676 21.675 8.533 43.622 11.537 65.57-0.546 0.102-0.99 0.58-0.99 1.161-0.034 11.878-1.092 23.825-3.106 35.499l-0.137 0.751c-0.546 3.243-1.126 6.588-0.819 9.967 0.068 0.751 0.171 1.502 0.273 2.253 0.375 2.662 0.751 5.188-0.58 6.997-0.41 0.546-0.273 1.297 0.273 1.707 0.205 0.171 0.478 0.239 0.717 0.239 0.171 0 0.341-0.034 0.512-0.102l-2.901 106.871zM826.197 292.796v0c-0.034-0.171-0.068-0.375-0.102-0.546-0.273-3.072 0.273-6.246 0.819-9.318l0.137-0.785c1.843-10.684 2.833-21.606 3.038-32.461h0.341c0.751 0 1.502 0 2.287 0-0.375 12.527-1.604 25.122-3.652 37.478-0.273 1.673-0.546 3.516-0.239 5.291-0.887 0.102-1.741 0.205-2.628 0.341zM831.249 292.181c-0.307-1.434-0.068-3.038 0.205-4.608 2.082-12.493 3.311-25.225 3.686-37.888 11.981 0.068 23.996-0.137 35.703-0.341 13.21-0.273 26.863-0.546 40.311-0.341 4.437 0.068 8.841 0.068 13.244 0.068 3.857 0 7.817 0.034 11.81 0.068-2.594 11.947-5.53 23.996-8.738 35.806-0.102 0.375 0 0.717 0.205 1.024-27.682-0.478-58.129 1.502-96.427 6.212zM939.895 287.369l-0.102-1.024-1.058-0.034c-0.239 0-0.478 0-0.717-0.034-0.614-7.509 1.707-14.711 4.233-22.323 1.57-4.745 3.14-9.626 3.959-14.609l0.751 0.034 0.068-1.161c1.331-23.723 1.809-47.753 1.536-71.578 5.905-3.516 12.629-5.495 19.524-5.598 0.887 0 1.741 0 2.628 0 1.399 0.034 2.799 0.034 4.198-0.034 3.209-0.205 6.383-0.99 9.353-2.287 1.195 36.83 3.721 154.044 3.891 168.073l0.785 61.815c-5.871 0.41-11.469 2.389-16.896 4.301-4.369 1.536-8.875 3.14-13.449 3.857l-1.365 0.205c-2.594 0.375-5.427 0.853-7.714 2.355-1.809-18.944-3.14-38.127-4.403-56.764-1.468-21.436-2.97-43.554-5.222-65.195zM968.226 411.75c-7.066 2.56-15.735 5.734-17.92 5.495-0.171-1.707-0.307-3.413-0.478-5.12 1.843-1.911 4.847-2.355 7.782-2.799l1.399-0.205c4.779-0.751 9.421-2.389 13.892-3.959 5.222-1.843 10.615-3.721 16.111-4.164l0.034 3.994c-5.769 1.297-13.414 4.062-20.821 6.758z"></path>
<path fill="#fff" d="M1834.701 752.333c-3.482-6.178-7.851-11.981-13.107-17.476-2.253-5.12-5.359-9.865-9.216-13.892-6.724-6.997-15.292-11.708-23.484-15.94-22.255-11.503-45.363-21.163-69.052-29.047-1.57-0.922-3.14-1.843-4.745-2.697-4.096-2.185-8.397-4.233-12.527-6.212-10.445-4.983-21.231-10.138-29.798-17.988-2.765-2.526-5.871-5.052-9.182-7.748-11.639-9.421-24.815-20.105-24.235-33.212 0.307-6.929 12.493-17.886 19.797-24.474 1.399-1.263 2.662-2.389 3.618-3.311 4.062-3.857 9.523-6.11 14.78-8.124 21.504-8.192 59.529-9.489 90.044-10.513 10.206-0.341 19.9-0.683 27.955-1.229 3.209 0.478 6.451 0.819 9.694 0.853 0 0 0 0 0 0 0.546 0 0.956-0.444 0.956-0.956 0-0.546-0.41-0.99-0.956-0.99-2.15-0.034-4.335-0.171-6.485-0.444-0.137-0.341-0.41-0.614-0.922-0.58-0.751 0.068-1.502 0.102-2.287 0.171-5.769-0.887-11.435-2.355-17.033-3.789-5.871-1.502-11.947-3.072-18.057-3.959-3.994-0.58-8.055-0.887-12.083-1.092 11.435-2.253 22.835-4.745 34.167-7.509 4.642 2.867 9.25 5.803 13.892 8.806 0.444 0.273 1.058 0.171 1.331-0.273 0.307-0.444 0.171-1.058-0.273-1.331-4.028-2.628-8.124-5.257-12.254-7.817 5.052-1.263 10.103-2.56 15.121-3.891 0.512-0.137 0.819-0.683 0.683-1.195s-0.683-0.819-1.195-0.683c-5.632 1.502-11.298 2.935-16.964 4.335-7.407-4.506-14.985-8.841-22.801-12.595 11.503-1.195 23.108-2.799 34.338-5.7 0.512-0.137 0.819-0.649 0.683-1.195-0.137-0.512-0.649-0.819-1.195-0.683-12.151 3.14-24.781 4.745-37.239 5.973-8.055-3.686-16.316-6.724-24.883-8.841 25.702-3.618 48.674-3.072 70.076 1.604 0.546 0.102 1.024-0.205 1.161-0.751 0.102-0.512-0.205-1.024-0.751-1.161-23.040-5.018-47.821-5.359-75.81-0.887-46.797-9.079-97.314 13.824-121.071 55.228-4.779 8.329-7.27 15.326-7.817 22.084-0.717 8.465 1.638 16.998 3.721 24.542l1.297 4.71c-0.546 10.069 1.331 19.388 5.598 26.829 0.922 1.604 1.98 3.106 3.072 4.574 1.57 5.598 3.447 11.708 7.168 16.623 8.124 10.752 22.972 13.687 34.884 16.043 5.53 1.092 11.23 2.287 16.998 3.618 21.845 9.865 44.373 18.193 67.379 24.849 4.028 2.321 7.987 4.847 11.81 7.578 19.797 14.029 34.406 32.7 42.052 52.634l-22.835 30.857c-0.751 1.024-1.536 2.082-2.355 3.14l-11.23 8.943c-9.079 7.236-18.159 14.268-27.341 20.617-6.042 1.161-12.322 1.399-18.466 1.604l-3.243 0.102c-24.064 0.922-48.060 4.54-71.305 10.786-0.512 0.137-0.819 0.683-0.683 1.195 0.102 0.444 0.512 0.717 0.922 0.717 0.068 0 0.171 0 0.239-0.034 23.108-6.212 46.967-9.83 70.895-10.718l3.243-0.102c4.847-0.171 9.762-0.341 14.609-0.956-2.833 1.877-5.632 3.686-8.499 5.427-1.365 0.683-2.731 1.331-4.096 1.911-0.034 0.034-0.102 0.034-0.137 0.068-8.021 0.956-16.077 1.741-24.132 2.253-6.315 0.41-12.527 1.058-18.534 1.673-4.403 0.444-8.704 0.887-13.005 1.229-2.731-0.239-5.427-0.512-8.158-0.853-0.512-0.068-1.024 0.307-1.058 0.853-0.034 0.205 0.068 0.41 0.171 0.58-7.134 0.307-14.302 0.205-21.811-0.717-0.546-0.068-1.024 0.307-1.092 0.853s0.307 1.024 0.853 1.092c4.198 0.512 8.294 0.717 12.322 0.819 0.171 0.205 0.375 0.375 0.683 0.41 9.489 0.717 19.456 1.468 29.559 1.468 6.212 0 12.425-0.307 18.603-1.058 0.444 0 0.887 0.034 1.365 0.034 2.901 0 5.837-0.102 8.738-0.171-12.39 5.393-25.156 8.704-38.571 8.909-0.546 0-0.956 0.444-0.956 0.99s0.444 0.956 0.956 0.956c0 0 0 0 0 0 15.223-0.239 29.764-4.574 43.349-10.957 30.345-1.195 60.553-6.519 89.429-15.667-2.185 5.12-4.676 9.455-7.578 13.141-1.775 2.253-3.789 4.369-6.007 6.383-15.223 4.267-26.317 6.076-43.418 7.1l-95.573 5.769c-0.546 0.034-0.956 0.478-0.922 1.024 0.034 0.512 0.444 0.922 0.956 0.922 0.034 0 0.034 0 0.068 0l95.573-5.769c15.667-0.956 26.351-2.56 39.697-6.042-5.359 4.096-11.81 7.68-19.524 10.752-41.028 16.384-88.986 8.943-127.522 2.97-0.58-0.068-1.024 0.273-1.092 0.819-0.068 0.512 0.273 1.024 0.819 1.092 21.197 3.277 45.227 7.031 69.427 7.031 20.105 0 40.311-2.56 59.153-10.103 9.557-3.823 17.271-8.397 23.347-13.79 0.171-0.034 0.341-0.102 0.512-0.137 0.41-0.102 0.58-0.478 0.614-0.853 2.014-1.877 3.823-3.857 5.461-5.973 3.277-4.164 6.042-9.182 8.431-15.121 2.082-0.683 4.198-1.297 6.281-2.048 3.789-1.331 7.646-2.765 11.366-4.403-1.911 4.437-4.267 8.567-7.066 12.322-7.202 9.557-17.408 16.623-25.498 21.709-10.684 6.724-19.661 11.162-28.297 13.926-8.738 2.799-17.749 4.13-27.785 5.461-28.535 3.789-58.641 6.724-85.709-2.97-0.512-0.171-1.058 0.068-1.229 0.58s0.068 1.058 0.58 1.229c13.824 4.915 28.331 6.656 43.042 6.656 14.575 0 29.286-1.673 43.588-3.584 10.103-1.365 19.217-2.697 28.126-5.564 8.806-2.833 17.92-7.305 28.74-14.131 8.226-5.188 18.603-12.39 26.010-22.187 3.345-4.403 6.007-9.353 8.124-14.677 5.803-2.765 11.264-6.11 15.872-10.547 19.319-18.466 17.545-49.869 6.144-70.11zM1795.652 788.446c0.137 0.58 0.273 1.161 0.375 1.741-8.26 10.377-17.306 20.139-28.433 27.58-3.516 2.355-7.236 4.403-10.957 6.383 4.164-4.369 7.885-9.079 11.23-13.585l27.785-22.118zM1797.325 787.081l2.935-2.355c-0.887 1.161-1.775 2.321-2.697 3.482-0.068-0.375-0.137-0.751-0.239-1.126zM1730.97 840.294c0.239-0.137 0.444-0.273 0.683-0.41 1.57-0.41 3.14-0.887 4.71-1.468 5.769-2.185 10.854-5.598 15.428-9.591 5.7-2.901 11.537-5.871 16.93-9.489 10.854-7.236 19.729-16.623 27.785-26.624 0.922 5.393 1.331 10.82 1.126 16.213-0.239 6.451-1.263 13.073-3.072 19.729-9.455 4.881-19.9 7.885-29.969 10.377-15.462 3.823-31.164 6.793-47.036 8.943 4.642-2.389 9.079-5.052 13.414-7.68zM1799.543 808.994c0.239-6.076-0.273-12.22-1.434-18.33 2.799-3.55 5.53-7.134 8.226-10.752l5.325-4.233c2.389 8.090 3.823 15.804 4.301 23.279 0.273 4.062 0.205 8.055-0.102 11.947-3.721 5.222-8.67 10.001-14.643 13.926-1.434 0.956-2.901 1.843-4.403 2.662 1.57-6.246 2.526-12.459 2.731-18.5zM1810.807 773.905c0.068-0.102 0.137-0.205 0.239-0.307 0 0.034 0.034 0.068 0.034 0.102l-0.273 0.205zM1817.907 798.822c-0.512-7.851-2.048-15.974-4.608-24.439l2.287-1.809c1.297-1.024 2.662-2.15 3.959-3.379 2.97 7.68 4.813 16.111 3.482 24.644-0.717 4.71-2.492 9.353-5.052 13.722 0.137-2.867 0.137-5.769-0.068-8.738zM1814.391 771.038l-1.707 1.365c-0.102-0.273-0.171-0.546-0.273-0.819 1.775-2.697 3.345-5.666 4.096-8.909 0.034-0.102 0.034-0.205 0.034-0.307 0.785 1.604 1.536 3.243 2.219 4.915-1.399 1.365-2.935 2.594-4.369 3.755zM1719.023 677.751c7.031 4.062 13.824 8.602 20.446 13.175 7.202 9.489 19.046 17.033 30.788 24.269-5.973-2.799-12.015-5.427-17.954-7.987l-76.629-33.212c-8.055-3.482-16.418-7.1-23.962-11.878-1.195-0.751-2.321-1.57-3.447-2.355 3.14 0.683 6.281 1.331 9.421 1.946l3.209 0.614c19.661 3.891 39.083 9.079 58.129 15.428zM1772.885 714.581c-9.421-5.803-19.046-11.776-26.283-18.671l20.036 13.995c2.731 1.911 5.53 3.857 8.226 5.905-0.649-0.444-1.331-0.853-1.98-1.229zM1799.543 736.393c5.666 6.007 9.967 13.039 13.073 18.5 0.819 1.434 1.604 2.901 2.423 4.437-0.068 0.956-0.171 1.911-0.41 2.901-0.546 2.458-1.673 4.745-2.97 6.929-2.15-6.212-4.813-12.595-8.055-19.251-4.198-8.602-8.226-15.394-12.595-21.026 3.14 2.389 6.042 4.881 8.533 7.509zM1801.079 735.232c5.53 4.471 12.151 11.366 13.653 19.558-0.171-0.273-0.307-0.546-0.478-0.819-3.106-5.53-7.441-12.629-13.175-18.739zM1816.951 758.852c0.478-13.722-13.278-24.576-19.661-28.843-2.97-1.98-6.007-3.823-9.079-5.598-0.819-0.58-1.673-1.161-2.526-1.707-0.58-0.58-1.126-1.195-1.707-1.741-4.983-4.813-10.684-8.806-16.247-12.663l-22.289-15.565c-2.765-1.911-5.53-3.857-8.363-5.769 11.605 5.257 21.094 10.001 30.959 14.95 3.038 1.502 6.076 3.038 9.25 4.608 18.398 9.148 32.358 18.739 42.667 29.457 2.355 5.427 3.686 11.264 3.857 17.169 0.102 4.13-0.444 7.236-1.707 9.762-0.512 0.99-1.195 1.911-1.911 2.799-1.024-2.389-2.116-4.676-3.243-6.861zM1810.944 722.295c2.355 2.458 4.403 5.222 6.178 8.158-9.967-9.216-22.767-17.613-38.946-25.668-3.14-1.57-6.212-3.106-9.25-4.608-12.629-6.315-24.542-12.322-41.131-19.49 20.617 7.305 40.721 15.974 60.211 26.044 8.021 4.164 16.452 8.806 22.938 15.565zM1727.522 680.619c0 0-0.034 0-0.034 0-0.034 0-0.034-0.034-0.068-0.034 0 0 0.068 0 0.102 0.034zM1662.327 642.833c3.277 2.662 6.383 5.188 9.079 7.646 8.772 8.055 19.729 13.244 30.276 18.295 2.594 1.229 5.222 2.526 7.817 3.823-15.872-4.881-31.983-8.977-48.333-12.22l-3.243-0.649c-4.54-0.887-9.182-1.809-13.722-2.97-4.198-3.311-8.124-6.963-11.639-10.991-2.765-3.174-5.973-7.407-6.417-12.186-0.341-3.584 0.887-7.236 2.287-10.65 2.628-6.451 5.905-12.629 9.728-18.398-0.478 1.195-0.785 2.389-0.819 3.482-0.58 14.097 13.005 25.088 24.986 34.816zM1635.908 581.222c2.628-2.935 5.12-6.042 7.543-9.045 3.755-4.642 7.646-9.455 11.981-13.653 1.911-1.843 3.994-3.618 6.144-5.291 6.144-1.434 12.425-1.946 18.022-2.253 17.135-0.922 34.509-0.58 51.575 0-15.906 2.901-32.29 5.973-47.309 12.561-25.566 11.196-46.285 32.393-56.934 58.163-0.717-8.192 2.321-24.269 5.7-36.966 1.092-1.126 2.219-2.321 3.277-3.516zM1633.758 580.71c1.775-6.144 3.584-11.025 4.915-13.073 3.721-5.769 10.172-10.411 18.125-13.039 0.068-0.034 0.102-0.034 0.171-0.034-0.99 0.853-1.946 1.741-2.867 2.628-4.437 4.267-8.363 9.148-12.151 13.824-2.389 2.97-4.881 6.076-7.475 8.943-0.239 0.239-0.478 0.478-0.717 0.751zM1625.566 625.254c-0.922 2.765-1.57 5.632-1.297 8.567 0.512 5.359 3.959 9.899 6.895 13.278 2.628 3.004 5.461 5.803 8.465 8.431-3.755-1.161-7.407-2.56-10.889-4.335-11.196-5.769-18.5-15.189-19.558-25.122-1.058-9.796 3.925-18.842 8.294-24.678 3.413-4.608 7.543-8.806 11.503-12.868 0.307-0.307 0.58-0.614 0.887-0.922-3.55 14.199-6.315 31.13-4.301 37.649zM1741.449 551.356c6.178 0.205 12.561 0.444 18.773 1.365 6.007 0.887 12.015 2.423 17.852 3.925 3.174 0.819 6.417 1.638 9.66 2.389-6.246 0.307-13.107 0.546-20.241 0.785-30.686 1.058-68.847 2.355-90.658 10.65-2.526 0.956-5.052 1.98-7.509 3.209 4.847-3.174 9.967-5.973 15.292-8.329 15.292-6.69 32.154-9.762 48.469-12.698 2.185-0.41 4.403-0.785 6.588-1.195 0.205-0.034 0.375-0.068 0.58-0.102 0.375-0.034 0.785 0 1.195 0zM1780.292 540.774c-13.346 3.209-26.795 6.11-40.209 8.602-19.866-0.683-40.38-1.365-60.587-0.273-4.369 0.239-9.148 0.614-13.995 1.434 13.961-9.489 32.461-15.804 56.183-19.046 8.294-1.126 16.794-1.911 25.020-2.662 3.243-0.307 6.485-0.614 9.762-0.922 8.090 3.755 16.009 8.124 23.825 12.868zM1728.819 518.349c8.294 1.843 16.247 4.608 23.996 7.953-2.116 0.205-4.233 0.41-6.315 0.58-8.26 0.751-16.759 1.536-25.088 2.662-26.146 3.55-46.114 10.752-60.723 21.914-1.502 0.375-3.038 0.751-4.54 1.229-5.905 1.98-14.029 5.973-19.149 13.824-1.673 2.56-3.994 9.216-6.144 17.203-1.092 1.126-2.185 2.253-3.277 3.379-4.028 4.096-8.158 8.363-11.674 13.039-4.574 6.11-9.796 15.599-8.67 26.044 1.126 10.615 8.806 20.548 20.582 26.658 4.915 2.56 10.172 4.301 15.531 5.7 2.321 1.809 4.71 3.584 7.236 5.154 7.68 4.847 16.111 8.499 24.235 12.015l76.629 33.212c11.23 4.881 22.733 9.865 33.621 15.906 5.973 6.417 11.23 14.575 16.725 25.839 3.447 7.134 6.246 13.926 8.465 20.514-0.887 1.331-1.809 2.594-2.731 3.823-0.853 1.161-1.741 2.321-2.594 3.482l-8.090 6.451c-0.819-3.174-1.843-6.349-3.038-9.489 1.604-2.219 3.345-4.642 4.233-7.475 1.229-3.959 0.649-8.158 0.102-10.991-2.219-11.503-8.499-21.845-17.203-28.365-8.567-6.417-19.149-9.182-29.355-11.844l-2.116-0.546c-3.652-0.956-7.305-2.014-10.923-3.072-21.367-12.356-45.056-19.695-67.516-24.883-10.752-4.881-21.367-10.069-31.778-15.701-9.216-4.983-19.354-10.991-26.146-19.661-0.102-0.341-0.205-0.717-0.307-1.092l-8.192-29.628c0.137-2.287 0.375-4.608 0.785-6.963 1.911-11.093 6.417-21.709 11.264-32.495 6.281-13.961 12.8-27.273 23.825-36.386 9.011-7.475 20.412-11.503 31.266-14.985 19.661-6.315 37.786-10.82 54.75-13.517 0.785 0.205 1.57 0.341 2.321 0.512zM1599.556 593.408c0.546-6.451 2.97-13.21 7.578-21.265 22.050-38.434 69.769-61.167 113.63-55.194-15.497 2.799-31.915 6.963-49.63 12.663-11.059 3.55-22.63 7.646-31.915 15.326-11.332 9.387-17.988 22.903-24.371 37.069-4.881 10.889-9.421 21.606-11.401 32.939-0.137 0.717-0.205 1.434-0.307 2.15-2.082-7.68-4.267-15.633-3.584-23.689zM1604.608 629.487l5.052 18.261c-2.901-5.257-4.608-11.503-5.052-18.261zM1653.794 684.646c-11.605-2.287-26.044-5.154-33.724-15.326-2.628-3.482-4.267-7.646-5.598-11.81 6.793 7.168 15.667 12.356 23.859 16.794 7.817 4.233 15.77 8.226 23.791 12.049-2.765-0.58-5.564-1.161-8.329-1.707zM1681.237 692.838c16.145 4.233 32.597 9.762 48.094 17.613-16.316-5.052-32.393-10.923-48.094-17.613zM1750.733 720.998c-1.98-1.399-3.994-2.765-6.042-4.062 1.434 0.375 2.867 0.819 4.301 1.195l2.116 0.546c10.035 2.628 20.446 5.359 28.672 11.537 8.329 6.246 14.336 16.145 16.452 27.17 0.819 4.164 0.785 7.339-0.068 10.035-0.649 2.116-1.877 4.028-3.174 5.871-7.851-19.797-22.528-38.332-42.257-52.292zM1792.478 777.387c1.058 2.97 1.98 5.973 2.731 8.977l-22.801 18.159 20.070-27.136zM1756.467 819.678l5.052-4.028c-3.277 4.062-6.861 8.055-10.854 11.571-0.273 0.137-0.546 0.273-0.853 0.444-3.413 1.741-6.963 3.516-10.377 5.427-0.307 0.171-0.614 0.341-0.887 0.512 6.349-4.745 12.39-9.523 17.92-13.926zM1668.949 854.562c5.973-0.614 12.151-1.263 18.432-1.673 5.461-0.341 10.957-0.819 16.418-1.399-5.939 1.877-12.049 3.106-18.193 3.857-6.212-0.034-12.39-0.239-18.569-0.614 0.649-0.034 1.263-0.102 1.911-0.171zM1653.487 855.996c0.751-0.068 1.536-0.102 2.287-0.171 2.082 0.205 4.164 0.341 6.281 0.512-2.901-0.068-5.734-0.171-8.567-0.341zM1697.724 855.177c1.775-0.41 3.55-0.887 5.291-1.399-0.887 0.444-1.809 0.887-2.697 1.331-0.853 0-1.707 0.034-2.594 0.068zM1705.131 854.903c2.765-1.399 5.495-2.901 8.192-4.437 17.442-2.15 34.748-5.325 51.712-9.523 9.591-2.389 19.558-5.222 28.706-9.66-0.41 1.365-0.785 2.731-1.263 4.13-0.444 1.297-0.922 2.492-1.434 3.721-27.716 8.909-56.73 14.199-85.914 15.77zM1798.212 836.71c-1.57 0.546-3.174 1.058-4.779 1.57 0.273-0.785 0.614-1.502 0.887-2.287 0.683-2.014 1.297-3.994 1.843-6.007 2.082-1.092 4.13-2.253 6.11-3.55 5.222-3.413 9.626-7.475 13.21-11.913-0.751 5.973-2.116 11.674-4.164 16.998-4.267 1.98-8.704 3.652-13.107 5.188zM1813.845 830.327c2.048-5.871 3.413-12.186 3.959-18.773 3.755-5.427 6.246-11.366 7.168-17.408 1.434-9.284-0.649-18.33-3.925-26.487 1.058-1.195 2.082-2.423 2.799-3.891 1.434-2.799 2.048-6.212 1.911-10.684-0.102-4.506-0.887-8.977-2.253-13.278 3.721 4.301 6.861 8.772 9.523 13.483 11.025 19.593 12.8 49.971-5.632 67.721-3.959 3.789-8.636 6.793-13.551 9.318z"></path>
</svg>
